<?xml version="1.0" encoding="UTF-8" standalone="no"?>
<!-- Created with Inkscape (http://www.inkscape.org/) -->

<svg
   width="42.943359mm"
   height="54.556427mm"
   viewBox="0 0 42.943359 54.556427"
   version="1.1"
   id="svg5"
   xml:space="preserve"
   inkscape:version="1.2.2 (732a01da63, 2022-12-09)"
   sodipodi:docname="logo.svg"
   xmlns:inkscape="http://www.inkscape.org/namespaces/inkscape"
   xmlns:sodipodi="http://sodipodi.sourceforge.net/DTD/sodipodi-0.dtd"
   xmlns="http://www.w3.org/2000/svg"
   xmlns:svg="http://www.w3.org/2000/svg"><sodipodi:namedview
     id="namedview7"
     pagecolor="#505050"
     bordercolor="#eeeeee"
     borderopacity="1"
     inkscape:showpageshadow="0"
     inkscape:pageopacity="0"
     inkscape:pagecheckerboard="0"
     inkscape:deskcolor="#505050"
     inkscape:document-units="mm"
     showgrid="false"
     inkscape:zoom="2"
     inkscape:cx="314.75"
     inkscape:cy="615.5"
     inkscape:window-width="1920"
     inkscape:window-height="1017"
     inkscape:window-x="1072"
     inkscape:window-y="704"
     inkscape:window-maximized="1"
     inkscape:current-layer="layer1" /><defs
     id="defs2" /><g
     inkscape:label="Calque 1"
     inkscape:groupmode="layer"
     id="layer1"
     transform="translate(-77.585939,-117.55468)"><g
       id="rect2486"
       transform="matrix(0,-1,-1,0,0,0)"><path
         style="color:#000000;fill:#005b44;stroke-width:1.941;stroke-linecap:round;stroke-linejoin:round;stroke-miterlimit:4.9;-inkscape-stroke:none"
         d="m -151.25636,-119.558 h 24.46288 c 4.58111,0 8.26914,3.68804 8.26914,8.26914 v 24.46288 c 0,4.581104 -3.68803,8.269141 -8.26914,8.269141 h -24.46288 c -4.5811,0 -8.26914,-3.688037 -8.26914,-8.269141 v -24.46288 c 0,-4.5811 3.68804,-8.26914 8.26914,-8.26914 z"
         id="path2829" /></g><g
       id="rect2486-5"
       transform="matrix(0,-1,-1,0,0,0)"><path
         style="color:#000000;fill:#ffffff;stroke-width:0.620498;stroke-linecap:round;stroke-linejoin:round;stroke-miterlimit:4.9;-inkscape-stroke:none"
         d="m -159.8027,-99.054737 20.74217,-0.01429 5e-5,20.715065 c 0,0 -13.92976,1.372357 -18.23425,-3.036616 -4.15451,-4.255358 -2.50797,-17.664157 -2.50797,-17.664157 z"
         id="path2823"
         sodipodi:nodetypes="cccac" /></g><g
       id="rect2486-5-1"
       transform="matrix(0,-1,-1,0,0,0)"><path
         style="color:#000000;fill:#ffffff;stroke-width:0.620498;stroke-linecap:round;stroke-linejoin:round;stroke-miterlimit:4.9;-inkscape-stroke:none"
         d="m -139.07102,-119.82137 c 0,0 13.51985,-1.62265 17.79009,2.58097 4.37247,4.30426 2.92881,18.17217 2.92881,18.17217 h -20.71046 z"
         id="path2817"
         sodipodi:nodetypes="caccc" /></g><path
       style="color:#000000;fill:#11482f;fill-opacity:1;stroke-linecap:round;stroke-linejoin:round;stroke-miterlimit:4.9;-inkscape-stroke:none"
       d="m -151.25586,-120.5293 c -5.10197,0 -9.24023,4.13827 -9.24023,9.24024 v 24.462888 c 0,5.101969 4.13826,9.240235 9.24023,9.240235 h 24.46289 c 5.10197,0 9.23828,-4.138266 9.23828,-9.240235 v -24.462888 c 0,-5.10197 -4.13631,-9.24024 -9.23828,-9.24024 z m 0,1.94141 h 24.46289 c 4.06023,0 7.29883,3.2386 7.29883,7.29883 v 24.462888 c 0,4.06023 -3.2386,7.298828 -7.29883,7.298828 h -24.46289 c -4.06023,0 -7.29883,-3.238598 -7.29883,-7.298828 v -24.462888 c 0,-4.06023 3.2386,-7.29883 7.29883,-7.29883 z"
       id="path2831"
       transform="matrix(0,-1,-1,0,0,0)" /><g
       id="layer1-2"
       transform="matrix(0.02936624,0,0,0.03006316,85.100654,114.66056)"
       style="fill:#11482f;fill-opacity:1;stroke:#ffffff;stroke-width:0;stroke-dasharray:none;stroke-opacity:1"><path
         id="path2449"
         style="fill:#11482f;fill-opacity:1;stroke:#ffffff;stroke-width:0;stroke-dasharray:none;stroke-opacity:1"
         d="m 86.083,448.55 c -4.536,-2.48 -5.032,-5.43 -4.697,-27.94 l 0.309,-20.74 2.805,-2.42 c 2.537,-2.18 3.711,-2.41 12.25,-2.41 h 9.44 l 0.01,-17.75 c 0,-15.83 0.21,-18.07 1.93,-20.75 1.07,-1.65 10.5,-12 20.96,-23 l 19.04,-20 0.02,-71 0.03,-71 -23.54,-17.9 c -12.94,-9.84 -23.96,-18.7 -24.49,-19.68 -0.555,-1.04 -0.955,-16.48 -0.955,-36.902 0,-38.412 0.163,-39.598 5.765,-41.917 2.04,-0.846 11.59,-1.1 33.52,-0.891 37.97,0.362 35.06,-1.056 35.55,17.317 l 0.33,12.475 h 16.92 16.91 V 73.51 c 0,-12.228 1.34,-16.534 5.68,-18.331 2.14,-0.889 12.74,-1.133 40.09,-0.922 45.53,0.35 41.57,-1.279 42.07,17.31 l 0.33,12.475 h 16.92 16.91 V 72.993 c 0,-12.413 1.14,-15.936 5.77,-17.852 2.04,-0.846 11.59,-1.1 33.52,-0.891 30.39,0.29 30.68,0.313 32.94,2.569 2.27,2.275 2.27,2.309 2.56,38.871 0.24,30.24 0.04,36.96 -1.13,38.72 -0.78,1.17 -11.81,10.01 -24.53,19.63 l -23.11,17.5 v 71 l -0.01,71 20.11,21.48 c 11.06,11.82 20.51,22.53 21,23.82 0.49,1.28 0.88,9.91 0.88,19.17 v 16.84 l 9.98,0.35 c 15.12,0.52 14.52,-0.61 14.52,27.34 0,22.03 -0.04,22.49 -2.27,24.72 l -2.28,2.28 -164.72,0.22 c -140.94,0.18 -165.1,0.01 -167.34,-1.21 z"
         transform="translate(554.82,264.5)" /><path
         id="path2394"
         style="fill:#11482f;fill-opacity:1;stroke:#ffffff;stroke-width:0;stroke-dasharray:none;stroke-opacity:1"
         d="m 387.19,96.542 v -24.5 h -19.41 -19.42 l -0.33,12.475 c -0.49,18.273 2.02,16.953 -33.04,17.323 -20.06,0.21 -28.99,-0.05 -31.03,-0.89 -4.63,-1.922 -5.77,-5.441 -5.77,-17.858 v -11.05 h -26 -26 v 11.945 c 0,11.182 -0.15,12.123 -2.41,14.75 l -2.41,2.803 -28.27,0.3 c -20.14,0.21 -29.1,-0.05 -31.14,-0.89 -4.63,-1.922 -5.77,-5.441 -5.77,-17.858 v -11.05 h -19.5 -19.5 v 24.5 24.498 h 135 135 z"
         transform="translate(554.82,264.5)" /><path
         id="path2392"
         style="fill:#11482f;fill-opacity:1;stroke:#ffffff;stroke-width:0;stroke-dasharray:none;stroke-opacity:1"
         d="m 357.47,148.79 12.14,-9.25 -58.71,-0.26 c -32.29,-0.14 -85.1,-0.14 -117.35,0 l -58.64,0.26 11.89,9.2 11.89,9.2 93.32,0.05 93.32,0.05 z"
         transform="translate(554.82,264.5)" /><path
         id="path2390"
         style="fill:#11482f;fill-opacity:1;stroke:#ffffff;stroke-width:0;stroke-dasharray:none;stroke-opacity:1"
         d="m 338.19,242.04 v -66 h -86 -86 v 66 66 h 86 86 z"
         transform="translate(554.82,264.5)" /><path
         id="path2388"
         style="display:inline;fill:#11482f;fill-opacity:1;stroke:#ffffff;stroke-width:0;stroke-dasharray:none;stroke-opacity:1"
         d="m 366.52,350.73 c -1.01,-1.27 -6.55,-7.35 -12.33,-13.5 l -10.5,-11.19 h -91.57 -91.58 l -12.75,13.5 -12.76,13.5 h 116.66 116.65 z"
         transform="translate(554.82,264.5)" /><path
         id="path2386"
         style="display:inline;fill:#11482f;fill-opacity:1;stroke:#ffffff;stroke-width:0;stroke-dasharray:none;stroke-opacity:1"
         d="m 380.19,383.04 v -12 h -128 -128 v 12 12 h 128 128 z"
         transform="translate(554.82,264.5)" /><path
         id="path2384"
         style="display:inline;fill:#11482f;fill-opacity:1;stroke:#ffffff;stroke-width:0;stroke-dasharray:none;stroke-opacity:1"
         d="m 405.19,422.54 v -9.5 h -153 -153 l 0.005,9.5 v 9.5 h 153 152.99 v -9.5 z"
         transform="translate(554.82,264.5)" /></g><text
       xml:space="preserve"
       style="font-style:normal;font-variant:normal;font-weight:normal;font-stretch:normal;font-size:11.2889px;font-family:'Century Gothic';-inkscape-font-specification:'Century Gothic, Normal';font-variant-ligatures:normal;font-variant-caps:normal;font-variant-numeric:normal;font-variant-east-asian:normal;opacity:1;fill:#ffffff;fill-opacity:1;stroke:#ffffff;stroke-width:0.844815;stroke-linecap:round;stroke-linejoin:round;stroke-miterlimit:4.9;stroke-dasharray:none;stroke-opacity:1"
       x="80.826187"
       y="171.44212"
       id="text4645"><tspan
         sodipodi:role="line"
         id="tspan4643"
         style="font-style:normal;font-variant:normal;font-weight:normal;font-stretch:normal;font-size:11.2889px;font-family:'Century Gothic';-inkscape-font-specification:'Century Gothic, Normal';font-variant-ligatures:normal;font-variant-caps:normal;font-variant-numeric:normal;font-variant-east-asian:normal;fill:#ffffff;fill-opacity:1;stroke-width:0.844815;stroke-dasharray:none"
         x="80.826187"
         y="171.44212">e</tspan></text><text
       xml:space="preserve"
       style="font-style:normal;font-variant:normal;font-weight:normal;font-stretch:normal;font-size:11.2889px;font-family:'Century Gothic';-inkscape-font-specification:'Century Gothic, Normal';font-variant-ligatures:normal;font-variant-caps:normal;font-variant-numeric:normal;font-variant-east-asian:normal;fill:#ffffff;fill-opacity:1;stroke:#ffffff;stroke-width:0.844815;stroke-linecap:round;stroke-linejoin:round;stroke-miterlimit:4.9;stroke-dasharray:none;stroke-opacity:1"
       x="87.551979"
       y="171.43613"
       id="text4645-4"><tspan
         sodipodi:role="line"
         id="tspan4643-9"
         style="font-style:normal;font-variant:normal;font-weight:normal;font-stretch:normal;font-size:11.2889px;font-family:'Century Gothic';-inkscape-font-specification:'Century Gothic, Normal';font-variant-ligatures:normal;font-variant-caps:normal;font-variant-numeric:normal;font-variant-east-asian:normal;fill:#ffffff;fill-opacity:1;stroke-width:0.844815;stroke-dasharray:none"
         x="87.551979"
         y="171.43613">C</tspan></text><text
       xml:space="preserve"
       style="font-style:normal;font-variant:normal;font-weight:normal;font-stretch:normal;font-size:11.2889px;font-family:'Century Gothic';-inkscape-font-specification:'Century Gothic, Normal';font-variant-ligatures:normal;font-variant-caps:normal;font-variant-numeric:normal;font-variant-east-asian:normal;fill:#ffffff;fill-opacity:1;stroke:#ffffff;stroke-width:0.844815;stroke-linecap:round;stroke-linejoin:round;stroke-miterlimit:4.9;stroke-dasharray:none;stroke-opacity:1"
       x="96.030472"
       y="171.64919"
       id="text4645-4-9"><tspan
         sodipodi:role="line"
         id="tspan4643-9-1"
         style="font-style:normal;font-variant:normal;font-weight:normal;font-stretch:normal;font-size:11.2889px;font-family:'Century Gothic';-inkscape-font-specification:'Century Gothic, Normal';font-variant-ligatures:normal;font-variant-caps:normal;font-variant-numeric:normal;font-variant-east-asian:normal;fill:#ffffff;fill-opacity:1;stroke-width:0.844815;stroke-dasharray:none"
         x="96.030472"
         y="171.64919">h</tspan></text><text
       xml:space="preserve"
       style="font-style:normal;font-variant:normal;font-weight:normal;font-stretch:normal;font-size:11.2889px;font-family:'Century Gothic';-inkscape-font-specification:'Century Gothic, Normal';font-variant-ligatures:normal;font-variant-caps:normal;font-variant-numeric:normal;font-variant-east-asian:normal;fill:#ffffff;fill-opacity:1;stroke:#ffffff;stroke-width:0.844815;stroke-linecap:round;stroke-linejoin:round;stroke-miterlimit:4.9;stroke-dasharray:none;stroke-opacity:1"
       x="102.39067"
       y="171.53438"
       id="text4645-3"><tspan
         sodipodi:role="line"
         id="tspan4643-7"
         style="font-style:normal;font-variant:normal;font-weight:normal;font-stretch:normal;font-size:11.2889px;font-family:'Century Gothic';-inkscape-font-specification:'Century Gothic, Normal';font-variant-ligatures:normal;font-variant-caps:normal;font-variant-numeric:normal;font-variant-east-asian:normal;fill:#ffffff;fill-opacity:1;stroke-width:0.844815;stroke-dasharray:none"
         x="102.39067"
         y="171.53438">e</tspan></text><text
       xml:space="preserve"
       style="font-style:normal;font-variant:normal;font-weight:normal;font-stretch:normal;font-size:11.2889px;font-family:'Century Gothic';-inkscape-font-specification:'Century Gothic, Normal';font-variant-ligatures:normal;font-variant-caps:normal;font-variant-numeric:normal;font-variant-east-asian:normal;fill:#ffffff;fill-opacity:1;stroke:#ffffff;stroke-width:0.844815;stroke-linecap:round;stroke-linejoin:round;stroke-miterlimit:4.9;stroke-dasharray:none;stroke-opacity:1"
       x="113.29971"
       y="171.4843"
       id="text4645-3-5"><tspan
         sodipodi:role="line"
         id="tspan4643-7-2"
         style="font-style:normal;font-variant:normal;font-weight:normal;font-stretch:normal;font-size:11.2889px;font-family:'Century Gothic';-inkscape-font-specification:'Century Gothic, Normal';font-variant-ligatures:normal;font-variant-caps:normal;font-variant-numeric:normal;font-variant-east-asian:normal;fill:#ffffff;fill-opacity:1;stroke-width:0.844815;stroke-dasharray:none"
         x="113.29971"
         y="171.4843">s</tspan></text><text
       xml:space="preserve"
       style="font-style:normal;font-variant:normal;font-weight:normal;font-stretch:normal;font-size:11.2889px;font-family:'Century Gothic';-inkscape-font-specification:'Century Gothic, Normal';font-variant-ligatures:normal;font-variant-caps:normal;font-variant-numeric:normal;font-variant-east-asian:normal;fill:#ffffff;fill-opacity:1;stroke:#ffffff;stroke-width:0.844815;stroke-linecap:round;stroke-linejoin:round;stroke-miterlimit:4.9;stroke-dasharray:none;stroke-opacity:1"
       x="109.12651"
       y="171.48654"
       id="text4645-3-5-8"><tspan
         sodipodi:role="line"
         id="tspan4643-7-2-2"
         style="font-style:normal;font-variant:normal;font-weight:normal;font-stretch:normal;font-size:11.2889px;font-family:'Century Gothic';-inkscape-font-specification:'Century Gothic, Normal';font-variant-ligatures:normal;font-variant-caps:normal;font-variant-numeric:normal;font-variant-east-asian:normal;fill:#ffffff;fill-opacity:1;stroke-width:0.844815;stroke-dasharray:none"
         x="109.12651"
         y="171.48654">s</tspan></text><path
       style="color:#000000;fill:#11482f;fill-opacity:1;stroke-width:0.964988;stroke-linecap:round;stroke-linejoin:round;stroke-miterlimit:4.9;-inkscape-stroke:none"
       d="m 120.029,150.68622 c 0,4.8643 -4.04187,8.80978 -9.025,8.80978 H 87.110984 c -4.983119,0 -9.024984,-3.94548 -9.024984,-8.80978 v -23.3233 c 0,-4.8643 4.041865,-8.80792 9.024984,-8.80792 H 111.004 c 4.98313,0 9.025,3.94362 9.025,8.80792 z m -1.89619,0 v -23.3233 c 0,-3.87109 -3.16316,-6.95882 -7.12881,-6.95882 H 87.110984 c -3.965647,0 -7.128802,3.08773 -7.128802,6.95882 v 23.3233 c 0,3.87109 3.163155,6.95882 7.128802,6.95882 H 111.004 c 3.96565,0 7.12881,-3.08773 7.12881,-6.95882 z"
       id="path4977" /></g></svg>
